<svg width="436" height="436" viewBox="0 0 436 436" fill="none" xmlns="http://www.w3.org/2000/svg">
<path d="M296 227V166.5L281 163.5L245.5 182.5L254 191V255L257 258.5L264 252L287 243.5L306 244.5V253L316 256L329.5 262.5H330.5V246L329 222.5L296 227Z" fill="#535457"/>
<path d="M287 273L322 251C322 251 331 260 330.5 265.5C330 271 327 276 327 276L305.5 286.5L298.5 284L287 273Z" fill="#58595E"/>
<path d="M267 266.5L306.5 244C306.5 244 275 235 256 257C237 279 267 266.5 267 266.5Z" fill="#58595E"/>
<path fill-rule="evenodd" clip-rule="evenodd" d="M238.5 260L218 211.5L254 191V251.5L238.5 260ZM296 166.831L332 146V206.5L296 227.5V166.831Z" fill="#4D4E52"/>
<path d="M370.5 196L388 206.5L377 213L370.5 196Z" fill="#292A2C"/>
<path d="M332 146L365 226L332 206.5V146Z" fill="#292A2C"/>
<path d="M204 220L236.5 300L232.5 297L218 305.5L189.5 289V211.5L204 220Z" fill="#292A2C"/>
<path d="M81 226L101 160C101 160 79 147.5 72.5 143.5C66 139.5 59.5 142 57.5 149C55.5 156 46 189 46 189L58.5 197V213.5L81 226Z" fill="#292A2C"/>
<path fill-rule="evenodd" clip-rule="evenodd" d="M425 228.5L403.5 203L379 217.184L347 137.5L332 146.154L364.636 225.5L330 245.5C330 245.5 331 268.5 328 271C325 273.5 305 285 304 285C298.975 285 286.5 270.737 286.5 270.737L251.5 291L218.5 211.635L204 220L236.5 300L213.5 313L216.5 348.5L425 228.5Z" fill="#434448"/>
<path d="M189.5 211.5V289L175.5 280.5L166 285.5L189.5 211.5Z" fill="#434448"/>
<path d="M59 197V213.5L44.5 205L59 197Z" fill="#434448"/>
<path d="M306.5 244V252.737L275.5 270.737L271.5 269.237L267 266.237L306.5 244Z" fill="#434448"/>
<path fill-rule="evenodd" clip-rule="evenodd" d="M403.5 203L364 180L370.5 196L388 206.5L377.219 212.747L379 217.184L403.5 203Z" fill="#55575E"/>
<path fill-rule="evenodd" clip-rule="evenodd" d="M359.812 222.833L332 206.5L296 227.5C308 227.5 327.5 234.5 330 245.553L364.5 225.579L359.812 222.833ZM286.359 270.819L251.5 291L249.684 286.642L238.5 260L254 251.5C257.5 262 271.5 271.5 286.359 270.819ZM213.5 313L236.5 300L232.67 296.5L218 305L175.5 280.5L165.75 285.5L213.5 313ZM78 235L22.5 203L32 197.5L44.5 205L81 226L78 235Z" fill="#55575E"/>
<path d="M44.5 205L32 197.5L46 189L59 197L44.5 205Z" fill="#55575E"/>
<path d="M22.5 203L8 229L216.5 348.5L213.5 313L166 285.644L189.5 211.5L101 160L78 234.963L22.5 203Z" fill="#323335"/>
<path fill-rule="evenodd" clip-rule="evenodd" d="M98.5 121.831L121.5 153L203 200L238.308 179.754L241 182L280.5 159L278.181 156.892L312 137.5L310 117.813L347 137.5L296 166.923C281 166 271 170 271 170C271 170 252.5 176.5 254 191.154L204 220C204 220 79.6301 147.85 74.5 145C69.3699 142.15 62.5 142.5 62.5 142.5L98.5 121.831Z" fill="#616268"/>
</svg>
