<svg width="436" height="436" viewBox="0 0 436 436" fill="none" xmlns="http://www.w3.org/2000/svg">
<path d="M237 264.5V221.5L216 233L215.5 283H220.5C226 283 237 272.5 237 264.5Z" fill="#361715"/>
<path d="M296 237V187.5L253.5 212L296 237Z" fill="#361715"/>
<path d="M207 238.5V288.5L123 239V248L117 243L118.5 215L116 203.5L123 188.5H125.5V146.5L205 192V236.5L207 238.5Z" fill="#361715"/>
<path d="M254 120V60.5L233 73.5L252.5 84.5L251.5 121L254 120Z" fill="#361715"/>
<path d="M301 128L308.5 133L205 192L125.5 146.5C125.5 146.5 131.5 142.5 132.5 141.5C133.5 140.5 133 138 134.5 137C136 136 181 109.5 181 109.5L253.5 97C253.5 97 297.5 123 299 123.5C300.5 124 299.5 127 301 128Z" fill="#4D2923"/>
<path d="M233 73.5L252.5 84.5L238 93.5L218 81.5L197 93.5L180 83.5L200.5 71.5L181 59.5L195.5 50.5L215 62.5L236.5 50L254 60.5L233 73.5Z" fill="#4D2923"/>
<path d="M176 200L182 203.5L170.5 210.5L165 207L176 200Z" fill="#4D2923"/>
<path d="M155 175L176 187L165 193.5L144 181.5L155 175Z" fill="#4D2923"/>
<path d="M143.5 187.5L138 191L144 194.5L145 188.5L143.5 187.5Z" fill="#4D2923"/>
<path fill-rule="evenodd" clip-rule="evenodd" d="M207 288.5V238.5L205 236.5V192L308.5 133V178.5L306 182V231L296 236.808V187.5L217 233.5V282.692L207 288.5Z" fill="#613E38"/>
<path d="M170.5 282V210.5L182 203.5V223.5L184.5 226.5V275L170.5 282Z" fill="#613E38"/>
<path d="M176 200L165 207V193.5L176 187V200Z" fill="#613E38"/>
<path d="M218 140.5V81.5L197 93.5V152L218 140.5Z" fill="#613E38"/>
<path d="M252.5 144L238 152V93.5L252.5 84.5V144Z" fill="#613E38"/>
<path d="M123 239V248L131.5 244L123 239Z" fill="#613E38"/>
<path d="M123 188.5L125.5 187.5V188.5H123Z" fill="#613E38"/>
<path d="M165 207L170.5 210.5V282L138 263V191L144 194.5V181.5L165 193.5V207Z" fill="#3F1D17"/>
<path d="M218 81.5L238 93.5V152L218 140.5V81.5Z" fill="#3F1D17"/>
<path d="M197 151.839V93.5L180 83.5V143L197 151.839Z" fill="#3F1D17"/>
<path d="M181 82.9141L200.5 71.5L181 59.5V82.9141Z" fill="#3F1D17"/>
</svg>
