<svg width="436" height="436" viewBox="0 0 436 436" fill="none" xmlns="http://www.w3.org/2000/svg">
<path fill-rule="evenodd" clip-rule="evenodd" d="M209.944 323.049C196.444 323.549 189.444 330.224 189.444 330.224L196.944 336.223C196.944 336.223 203.944 333.549 213.444 333.549C222.944 333.549 233.444 337.049 233.444 337.049C233.444 337.049 233 335 233 332.5C233 330 233.444 327.549 233.444 327.549C233.444 327.549 223.444 322.549 209.944 323.049Z" fill="#9499A0"/>
<path d="M233.444 327.549C233.444 327.549 233 330 233 332.5C233 335 233.444 337.049 233.444 337.049C233.444 337.049 234.5 335.5 234.5 332.5C234.5 329.5 233.444 327.549 233.444 327.549Z" fill="#767C85"/>
<path d="M222.944 306.222C201.444 303.222 189.444 311.222 189.444 311.222L196.944 317.222C196.944 317.222 205.944 313.398 221.944 316.222C237.944 319.046 245.749 329.049 245.749 329.049L252.444 322.222C252.444 322.222 244.444 309.222 222.944 306.222Z" fill="#9499A0"/>
<path d="M222.944 285.222C201.444 282.222 189.444 290.222 189.444 290.222L196.944 296.222C196.944 296.222 205.944 292.398 221.944 295.222C237.944 298.046 246.249 308.549 246.249 308.549L252.444 301.222C252.444 301.222 244.444 288.222 222.944 285.222Z" fill="#9499A0"/>
<path d="M222.944 266.222C201.444 263.222 189.444 271.222 189.444 271.222L196.944 277.222C196.944 277.222 205.944 273.398 221.944 276.222C237.944 279.046 246.749 289.549 246.749 289.549L252.444 282.222C252.444 282.222 244.444 269.222 222.944 266.222Z" fill="#9499A0"/>
<path d="M222.944 242.222C201.444 239.222 189.444 247.222 189.444 247.222L196.944 253.222C196.944 253.222 205.944 249.398 221.944 252.222C237.944 255.046 246.249 267.049 246.249 267.049L252.444 258.222C252.444 258.222 244.444 245.222 222.944 242.222Z" fill="#9499A0"/>
<path d="M222.944 223.222C201.444 220.222 189.444 228.222 189.444 228.222L196.944 234.222C196.944 234.222 205.944 230.398 221.944 233.222C237.944 236.046 246.249 247.049 246.249 247.049L252.444 239.222C252.444 239.222 244.444 226.222 222.944 223.222Z" fill="#9499A0"/>
<path d="M222.944 204.222C201.444 201.222 189.444 209.222 189.444 209.222L196.944 215.222C196.944 215.222 205.944 211.398 221.944 214.222C237.944 217.046 245.749 228.549 245.749 228.549L252.444 220.222C252.444 220.222 244.444 207.222 222.944 204.222Z" fill="#9499A0"/>
<path d="M222.944 182.222C201.444 179.222 188.444 187.549 188.444 187.549L196.944 193.222C196.944 193.222 205.944 189.398 221.944 192.222C237.944 195.046 246.249 207.049 246.249 207.049L252.444 198.222C252.444 198.222 244.444 185.222 222.944 182.222Z" fill="#9499A0"/>
<path d="M222.944 162.201C201.444 159.201 188.444 167.528 188.444 167.528L196.944 173.201C196.944 173.201 205.944 169.377 221.944 172.201C237.944 175.025 246.249 187.049 246.249 187.049L252.444 178.201C252.444 178.201 244.444 165.201 222.944 162.201Z" fill="#9499A0"/>
<path d="M222.944 140.201C201.444 137.201 188.444 145.528 188.444 145.528L196.944 151.201C196.944 151.201 205.944 147.377 221.944 150.201C237.944 153.025 247.249 165.549 247.249 165.549L252.444 156.201C252.444 156.201 244.444 143.201 222.944 140.201Z" fill="#9499A0"/>
<path d="M222.944 119.201C201.444 116.201 188.444 124.528 188.444 124.528L196.944 130.201C196.944 130.201 205.944 126.377 221.944 129.201C237.944 132.025 246.249 142.549 246.249 142.549L252.444 135.201C252.444 135.201 244.444 122.201 222.944 119.201Z" fill="#9499A0"/>
<path fill-rule="evenodd" clip-rule="evenodd" d="M176.944 130.049C176.944 130.049 165.249 101.549 214.944 100.049C264.64 98.5488 259.749 132.049 259.749 132.049L247.944 137.049C247.944 137.049 250.944 109.549 216.459 110.549C181.973 111.549 186.944 122.549 186.944 122.549L176.944 130.049Z" fill="#C1C4C8"/>
</svg>
