<svg width="436" height="436" viewBox="0 0 436 436" fill="none" xmlns="http://www.w3.org/2000/svg">
<path d="M176 382.5L208 401L199.5 376L167 358L176 382.5Z" fill="#222425"/>
<path d="M78.5 327.5L70 302L36 282L44.5 308L78.5 327.5Z" fill="#222425"/>
<path d="M83.5 271.5V282.5L93.5 277.5L83.5 271.5Z" fill="#222425"/>
<path d="M212 345.5L221.5 352L212 358V345.5Z" fill="#222425"/>
<path d="M212 358V345.5L199.5 338.5V375.957L208 401L213.5 398L221.5 352L212 358Z" fill="#4D4E52"/>
<path d="M83.5 282.5L94 277L85.5 323.5L78.5 327.5L70 302V264L83.5 271.5V282.5Z" fill="#4D4E52"/>
<path d="M199.5 376V338.5L167 319.5V358L199.5 376Z" fill="#292A2C"/>
<path d="M70 302V264L36 244.5V282L70 302Z" fill="#292A2C"/>
</svg>
