<svg width="436" height="436" viewBox="0 0 436 436" fill="none" xmlns="http://www.w3.org/2000/svg">
<path d="M212 365V374.5L201 368.5V360.5L212 365Z" fill="#2E2F31"/>
<path d="M99.5 335.5L104.5 332.5L118 328V254L105.5 258.5L104.5 259.5L91 268.5V305L99.5 335.5Z" fill="#4D4E52"/>
<path d="M224 421L235 416V357.5L212 365.5V374.5L224 421Z" fill="#4D4E52"/>
<path d="M201 368.5L212 374.5L224 421L212 414.5L201 368.5Z" fill="#323335"/>
<path fill-rule="evenodd" clip-rule="evenodd" d="M103.5 352.143L99.5 335.5L91 305V268.5L74 259V294.5L84 341L103.5 352.143Z" fill="#323335"/>
<path d="M287.5 328V312.5L224.608 348.5C224.608 348.5 219 350.5 215.5 350.5C212 350.5 206 348.906 206 348.906L188.5 339L188 354.5L203.209 362.822C203.209 362.822 210 366 214.5 366C219 366 225.5 362.822 225.5 362.822L287.5 328Z" fill="#595A62"/>
<path fill-rule="evenodd" clip-rule="evenodd" d="M225 348.489C225 348.489 220.5 350.5 214.5 350.5C208.5 350.5 206 349 206 349L188.5 339L215.5 323.5L242 339L225 348.489ZM104.5 259.5L91 268.5L74 259L87.5 249.5L104.5 259.5Z" fill="#4E4F52"/>
</svg>
