<svg width="436" height="436" viewBox="0 0 436 436" fill="none" xmlns="http://www.w3.org/2000/svg">
<path fill-rule="evenodd" clip-rule="evenodd" d="M203.944 317.049C190.444 317.549 183.444 324.224 183.444 324.224L190.944 330.223C190.944 330.223 197.944 327.549 207.444 327.549C216.944 327.549 227.444 331.049 227.444 331.049C227.444 331.049 227 329 227 326.5C227 324 227.444 321.549 227.444 321.549C227.444 321.549 217.444 316.549 203.944 317.049Z" fill="#9499A0"/>
<path d="M227.444 321.549C227.444 321.549 227 324 227 326.5C227 329 227.444 331.049 227.444 331.049C227.444 331.049 228.5 329.5 228.5 326.5C228.5 323.5 227.444 321.549 227.444 321.549Z" fill="#767C85"/>
<path d="M216.944 300.222C195.444 297.222 183.444 305.222 183.444 305.222L190.944 311.222C190.944 311.222 199.944 307.398 215.944 310.222C231.944 313.046 239.749 323.049 239.749 323.049L246.444 316.222C246.444 316.222 238.444 303.222 216.944 300.222Z" fill="#9499A0"/>
<path d="M216.944 279.222C195.444 276.222 183.444 284.222 183.444 284.222L190.944 290.222C190.944 290.222 199.944 286.398 215.944 289.222C231.944 292.046 240.249 302.549 240.249 302.549L246.444 295.222C246.444 295.222 238.444 282.222 216.944 279.222Z" fill="#9499A0"/>
<path d="M216.944 260.222C195.444 257.222 183.444 265.222 183.444 265.222L190.944 271.222C190.944 271.222 199.944 267.398 215.944 270.222C231.944 273.046 240.749 283.549 240.749 283.549L246.444 276.222C246.444 276.222 238.444 263.222 216.944 260.222Z" fill="#9499A0"/>
<path d="M216.944 236.222C195.444 233.222 183.444 241.222 183.444 241.222L190.944 247.222C190.944 247.222 199.944 243.398 215.944 246.222C231.944 249.046 240.249 261.049 240.249 261.049L246.444 252.222C246.444 252.222 238.444 239.222 216.944 236.222Z" fill="#9499A0"/>
<path d="M216.944 217.222C195.444 214.222 183.444 222.222 183.444 222.222L190.944 228.222C190.944 228.222 199.944 224.398 215.944 227.222C231.944 230.046 240.249 241.049 240.249 241.049L246.444 233.222C246.444 233.222 238.444 220.222 216.944 217.222Z" fill="#9499A0"/>
<path d="M216.944 198.222C195.444 195.222 183.444 203.222 183.444 203.222L190.944 209.222C190.944 209.222 199.944 205.398 215.944 208.222C231.944 211.046 239.749 222.549 239.749 222.549L246.444 214.222C246.444 214.222 238.444 201.222 216.944 198.222Z" fill="#9499A0"/>
<path d="M216.944 176.222C195.444 173.222 182.444 181.549 182.444 181.549L190.944 187.222C190.944 187.222 199.944 183.398 215.944 186.222C231.944 189.046 240.249 201.049 240.249 201.049L246.444 192.222C246.444 192.222 238.444 179.222 216.944 176.222Z" fill="#9499A0"/>
<path d="M216.944 156.201C195.444 153.201 182.444 161.528 182.444 161.528L190.944 167.201C190.944 167.201 199.944 163.377 215.944 166.201C231.944 169.025 240.249 181.049 240.249 181.049L246.444 172.201C246.444 172.201 238.444 159.201 216.944 156.201Z" fill="#9499A0"/>
<path d="M216.944 134.201C195.444 131.201 182.444 139.528 182.444 139.528L190.944 145.201C190.944 145.201 199.944 141.377 215.944 144.201C231.944 147.025 241.249 159.549 241.249 159.549L246.444 150.201C246.444 150.201 238.444 137.201 216.944 134.201Z" fill="#9499A0"/>
<path d="M216.944 113.201C195.444 110.201 182.444 118.528 182.444 118.528L190.944 124.201C190.944 124.201 199.944 120.377 215.944 123.201C231.944 126.025 240.249 136.549 240.249 136.549L246.444 129.201C246.444 129.201 238.444 116.201 216.944 113.201Z" fill="#9499A0"/>
<path d="M252.444 318.049C248.944 316.049 241.249 328.049 241.749 331.049C241.928 332.123 242.26 334.671 241.112 337.5C241.112 337.5 246 335.5 249 333C252 330.5 255.018 325 255.018 325C254.463 321.203 253.281 318.527 252.444 318.049Z" fill="#ABB0B7"/>
<path fill-rule="evenodd" clip-rule="evenodd" d="M184.751 341C184.751 341 181.5 340.5 177.5 338.5C173.5 336.5 171.5 334.417 171.5 334.417C168.49 342.849 167.232 360.549 209.726 360.549C252.179 360.549 256.784 337.092 255.018 325C255.018 325 252 330.5 249 333C246 335.5 241.112 337.5 241.112 337.5C239.052 342.573 232.231 348.549 211.226 348.549C189.943 348.549 185.357 344.106 184.751 341Z" fill="#C1C4C8"/>
<path d="M185.249 338.049L173.554 330.049C173.554 330.049 172.441 331.78 171.5 334.417C171.5 334.417 173.5 336.5 177.5 338.5C181.5 340.5 184.751 341 184.751 341C184.426 339.332 185.249 338.049 185.249 338.049Z" fill="#ABB0B7"/>
<path d="M185.749 318.549L173.554 311.049C173.554 311.049 172.828 312.059 172 313.713C172 313.713 175.25 316.793 178 318C180.75 319.207 185.067 321 185.067 321C185.074 319.575 185.749 318.549 185.749 318.549Z" fill="#ABB0B7"/>
<path fill-rule="evenodd" clip-rule="evenodd" d="M185.067 321C185.053 324.242 188.5 329.549 211.226 329.549C235.445 329.549 242.177 320.508 243.309 315C243.309 315 247.251 313 249 311.5C250.749 310 253.5 306.087 253.5 306.087C256.661 317.425 255.277 341.943 209.726 341.549C162.602 341.141 168.315 321.067 172 313.713C172 313.713 175.25 316.793 178 318C180.75 319.207 185.067 321 185.067 321Z" fill="#C1C4C8"/>
<path d="M250.749 300.549C247.249 298.549 241.14 309.049 242.944 311.049C243.413 311.568 243.706 313.067 243.309 315C243.309 315 247.251 313 249 311.5C250.749 310 253.5 306.087 253.5 306.087C252.656 303.059 251.487 300.971 250.749 300.549Z" fill="#ABB0B7"/>
<path d="M184.749 298.549L173.554 291.049C173.554 291.049 172.694 292.386 171.847 294.5C171.847 294.5 175.5 297.5 178 298.5C180.5 299.5 184.29 301 184.29 301C184.167 299.575 184.749 298.549 184.749 298.549Z" fill="#ABB0B7"/>
<path fill-rule="evenodd" clip-rule="evenodd" d="M254.5 289C255.087 301.201 249.023 321.549 209.726 321.549C165.624 321.549 168.648 302.484 171.847 294.5C171.847 294.5 175.5 297.5 178 298.5C180.5 299.5 184.29 301 184.29 301C184.571 304.242 188.5 309.549 211.226 309.549C231.119 309.549 239.215 303.264 242.099 298C242.099 298 245 297 248.5 295C252 293 254.5 289 254.5 289Z" fill="#C1C4C8"/>
<path d="M251 281.5C248.695 281 241.14 289.549 242.944 291.049C243.652 291.637 243.958 294.606 242.099 298C242.099 298 245 297 248.5 295C252 293 254.5 289 254.5 289C253.887 284.5 251.681 281.648 251 281.5Z" fill="#ABB0B7"/>
<path d="M185.249 277.549L173.3 270.549C173.3 270.549 172.142 272.091 171.028 274.5C171.028 274.5 174.5 276.5 177.5 278C180.5 279.5 184.648 280.5 184.648 280.5C184.593 278.787 185.249 277.549 185.249 277.549Z" fill="#ABB0B7"/>
<path fill-rule="evenodd" clip-rule="evenodd" d="M184.648 280.5C184.772 284.336 188.463 290.549 211.082 290.549C237.34 290.549 243.365 279.599 243.529 274.5C243.529 274.5 247.5 272 249.5 270C251.5 268 254.057 264 254.057 264C257.769 276.638 257.21 303.957 209.582 302.549C163.904 301.199 167.207 282.759 171.028 274.5C171.028 274.5 174.5 276.5 177.5 278C180.5 279.5 184.648 280.5 184.648 280.5Z" fill="#C1C4C8"/>
<path d="M251.249 258.049C251.249 258.049 240.496 270.549 242.8 272.049C243.255 272.345 243.57 273.245 243.529 274.5C243.529 274.5 247.5 272 249.5 270C251.5 268 254.057 264 254.057 264C253.17 260.982 252.04 258.801 251.249 258.049Z" fill="#ABB0B7"/>
<path d="M185.249 256.549L173.944 249.549C173.944 249.549 173.021 250.884 172.069 253C172.069 253 174.5 255.5 178 257.5C181.5 259.5 184.765 260 184.765 260C184.403 258.055 185.249 256.549 185.249 256.549Z" fill="#ABB0B7"/>
<path fill-rule="evenodd" clip-rule="evenodd" d="M184.765 260C185.425 263.545 190.099 268.549 211.226 268.549C236.192 268.549 242.285 258.941 243.191 253.5C243.191 253.5 246.5 252.549 249 250.049C251.5 247.549 254.197 243.5 254.197 243.5C256.119 255.657 254.04 280.549 209.726 280.549C164.383 280.549 168.435 261.08 172.069 253C172.069 253 174.5 255.5 178 257.5C181.5 259.5 184.765 260 184.765 260Z" fill="#C1C4C8"/>
<path d="M252.444 237.049C251.14 235.049 241.64 248.049 242.944 250.049C243.254 250.523 243.472 251.81 243.191 253.5C243.191 253.5 246.5 252.549 249 250.049C251.5 247.549 254.197 243.5 254.197 243.5C253.638 239.96 252.739 237.5 252.444 237.049Z" fill="#ABB0B7"/>
<path d="M184.749 235.549L173.554 229.049C173.554 229.049 172.558 230.599 171.653 233C171.653 233 175 235.5 177.5 236.5C180 237.5 184.319 238.5 184.319 238.5C184.097 236.803 184.749 235.549 184.749 235.549Z" fill="#ABB0B7"/>
<path fill-rule="evenodd" clip-rule="evenodd" d="M254.94 226C254.94 226 252.5 229 249.5 231C246.5 233 243.182 234.5 243.182 234.5C241.318 240.034 233.649 247.549 211.226 247.549C189.085 247.549 184.785 242.053 184.319 238.5C184.319 238.5 180 237.5 177.5 236.5C175 235.5 171.653 233 171.653 233C168.544 241.25 166.519 259.549 209.726 259.549C250.36 259.549 255.847 238.059 254.94 226Z" fill="#C1C4C8"/>
<path d="M252.749 218.049C250.444 217.049 240.64 226.549 242.944 229.049C243.67 229.836 244.037 231.959 243.182 234.5C243.182 234.5 246.5 233 249.5 231C252.5 229 254.94 226 254.94 226C254.602 221.505 253.375 218.321 252.749 218.049Z" fill="#ABB0B7"/>
<path d="M252.249 196.049C249.445 194.549 240.14 207.549 242.944 209.049C243.956 209.59 244.368 212.149 242.944 215.2C242.944 215.2 246 214.5 249.5 211C253 207.5 255.101 204.168 255.101 204.168C254.384 199.646 252.968 196.433 252.249 196.049Z" fill="#ABB0B7"/>
<path fill-rule="evenodd" clip-rule="evenodd" d="M184.617 220.349C184.617 220.349 181 220 177 218C173 216 170.828 213.736 170.828 213.736C167.328 221.819 166.184 237.695 209.726 239.549C253.387 241.408 257.18 217.281 255.101 204.168C255.101 204.168 253 207.5 249.5 211C246 214.5 242.944 215.2 242.944 215.2C240.422 220.603 232.139 227.549 211.226 227.549C191.448 227.549 185.906 223.529 184.617 220.349Z" fill="#C1C4C8"/>
<path d="M184.749 216.549L173.554 209.049C173.554 209.049 172.048 210.919 170.828 213.736C170.828 213.736 173 216 177 218C181 220 184.617 220.349 184.617 220.349C183.773 218.269 184.749 216.549 184.749 216.549Z" fill="#ABB0B7"/>
<path d="M251.249 177.549C248.92 176.549 241.591 188.549 243.42 189.549C243.986 189.858 244.297 191.745 243.49 194.204C243.49 194.204 245.5 193 249 190.5C252.5 188 254 185.496 254 185.496C253.306 180.99 251.869 177.815 251.249 177.549Z" fill="#ABB0B7"/>
<path fill-rule="evenodd" clip-rule="evenodd" d="M185.041 200.337C185.041 200.337 180 199.5 177.5 198.5C175 197.5 171.539 194.5 171.539 194.5C168.381 203.042 167.716 219.678 210.202 220.049C252.18 220.416 255.91 197.907 254 185.496C254 185.496 252.5 188 249 190.5C245.5 193 243.49 194.204 243.49 194.204C241.688 199.698 234.304 208.049 211.702 208.049C191.554 208.049 186.189 203.688 185.041 200.337Z" fill="#C1C4C8"/>
<path d="M185.249 196.549L174.03 189.549C174.03 189.549 172.635 191.538 171.539 194.5C171.539 194.5 175 197.5 177.5 198.5C180 199.5 185.041 200.337 185.041 200.337C184.324 198.246 185.249 196.549 185.249 196.549Z" fill="#ABB0B7"/>
<path d="M250.749 158.049C246.14 156.549 239.104 167.049 242.177 169.049C243.234 169.737 243.682 172.142 242.482 175C242.482 175 245.5 174.5 249 172C252.5 169.5 254.132 166 254.132 166C253.553 161.599 251.98 158.45 250.749 158.049Z" fill="#ABB0B7"/>
<path fill-rule="evenodd" clip-rule="evenodd" d="M183.058 179.5C183.058 179.5 180 179 176 177.5C172 176 171 174 171 174C168.319 182.772 168.209 199.549 208.959 199.549C249.836 199.549 255.719 178.069 254.132 166C254.132 166 252.5 169.5 249 172C245.5 174.5 242.482 175 242.482 175C240.195 180.45 231.92 187.549 210.459 187.549C188.867 187.549 183.923 182.758 183.058 179.5Z" fill="#C1C4C8"/>
<path d="M184 176L173.413 168.549C173.413 168.549 171.989 170.764 171 174C171 174 172 176 176 177.5C180 179 183.058 179.5 183.058 179.5C182.612 177.821 184 176 184 176Z" fill="#ABB0B7"/>
<path d="M250.749 137.049C247.944 136.549 239.677 147.549 242.249 148.549C242.936 148.816 243.323 150.368 242.895 152.5C242.895 152.5 245.5 152 249 149C252.5 146 253.333 143 253.333 143C252.564 139.483 251.385 137.162 250.749 137.049Z" fill="#ABB0B7"/>
<path fill-rule="evenodd" clip-rule="evenodd" d="M184.14 158.5C184.14 158.5 182 158.5 177.5 156C173 153.5 171.935 152 171.935 152C170.5 159 164.5 179.5 208.959 180.549C253.417 181.597 255.957 155.003 253.333 143C253.333 143 252.5 146 249 149C245.5 152 242.895 152.5 242.895 152.5C241.724 158.346 234.434 168.549 210.459 168.549C188.558 168.549 184.457 162.5 184.14 158.5Z" fill="#C1C4C8"/>
<path d="M184.749 155.049L173.944 148.549C173.944 148.549 172.973 149.88 171.935 152C171.935 152 173 153.5 177.5 156C182 158.5 184.14 158.5 184.14 158.5C183.983 156.524 184.749 155.049 184.749 155.049Z" fill="#ABB0B7"/>
<path fill-rule="evenodd" clip-rule="evenodd" d="M208.959 158.549C264.741 158.549 252.677 115.549 252.677 115.549C252.677 115.549 242.354 126.598 242.177 128.049C242 129.5 243.177 146.549 210.459 146.549C188.799 146.549 184.988 140.851 184.886 137C184.886 137 182.5 137 178.5 135C174.5 133 172.792 131.5 172.792 131.5C169.089 139.854 165.64 158.549 208.959 158.549Z" fill="#C1C4C8"/>
<path d="M185.749 133.549L174.944 127.549C174.944 127.549 173.858 129.096 172.792 131.5C172.792 131.5 174.5 133 178.5 135C182.5 137 184.886 137 184.886 137C184.834 135.034 185.749 133.549 185.749 133.549Z" fill="#ABB0B7"/>
<path d="M208.944 94.0487C159.249 95.5487 170.944 124.049 170.944 124.049C188 147.5 230.444 131.549 230.444 131.549C230.444 131.549 230.944 129 230.444 125.5C229.944 122 227.944 119.049 227.944 119.049C227.944 119.049 198.444 132.049 180.944 116.549C180.944 116.549 175.973 105.549 210.459 104.549C244.944 103.549 241.944 131.049 241.944 131.049L253.749 126.049C253.749 126.049 258.64 92.5488 208.944 94.0487Z" fill="#C1C4C8"/>
</svg>
