<svg width="436" height="436" viewBox="0 0 436 436" fill="none" xmlns="http://www.w3.org/2000/svg">
<path d="M258.444 324.049C254.944 322.049 247.249 334.049 247.749 337.049C247.928 338.123 248.26 340.671 247.112 343.5C247.112 343.5 252 341.5 255 339C258 336.5 261.018 331 261.018 331C260.463 327.203 259.281 324.527 258.444 324.049Z" fill="#ABB0B7"/>
<path fill-rule="evenodd" clip-rule="evenodd" d="M190.751 347C190.751 347 187.5 346.5 183.5 344.5C179.5 342.5 177.5 340.417 177.5 340.417C174.49 348.849 173.232 366.549 215.726 366.549C258.179 366.549 262.784 343.092 261.018 331C261.018 331 258 336.5 255 339C252 341.5 247.112 343.5 247.112 343.5C245.052 348.573 238.231 354.549 217.226 354.549C195.943 354.549 191.357 350.106 190.751 347Z" fill="#C1C4C8"/>
<path d="M191.249 344.049L179.554 336.049C179.554 336.049 178.441 337.78 177.5 340.417C177.5 340.417 179.5 342.5 183.5 344.5C187.5 346.5 190.751 347 190.751 347C190.426 345.332 191.249 344.049 191.249 344.049Z" fill="#ABB0B7"/>
<path d="M191.749 324.549L179.554 317.049C179.554 317.049 178.828 318.059 178 319.713C178 319.713 181.25 322.793 184 324C186.75 325.207 191.067 327 191.067 327C191.074 325.575 191.749 324.549 191.749 324.549Z" fill="#ABB0B7"/>
<path fill-rule="evenodd" clip-rule="evenodd" d="M191.067 327C191.053 330.242 194.5 335.549 217.226 335.549C241.445 335.549 248.177 326.508 249.309 321C249.309 321 253.251 319 255 317.5C256.749 316 259.5 312.087 259.5 312.087C262.661 323.425 261.277 347.943 215.726 347.549C168.602 347.141 174.315 327.067 178 319.713C178 319.713 181.25 322.793 184 324C186.75 325.207 191.067 327 191.067 327Z" fill="#C1C4C8"/>
<path d="M256.749 306.549C253.249 304.549 247.14 315.049 248.944 317.049C249.413 317.568 249.706 319.067 249.309 321C249.309 321 253.251 319 255 317.5C256.749 316 259.5 312.087 259.5 312.087C258.656 309.059 257.487 306.971 256.749 306.549Z" fill="#ABB0B7"/>
<path d="M190.749 304.549L179.554 297.049C179.554 297.049 178.694 298.386 177.847 300.5C177.847 300.5 181.5 303.5 184 304.5C186.5 305.5 190.29 307 190.29 307C190.167 305.575 190.749 304.549 190.749 304.549Z" fill="#ABB0B7"/>
<path fill-rule="evenodd" clip-rule="evenodd" d="M260.5 295C261.087 307.201 255.023 327.549 215.726 327.549C171.624 327.549 174.648 308.484 177.847 300.5C177.847 300.5 181.5 303.5 184 304.5C186.5 305.5 190.29 307 190.29 307C190.571 310.242 194.5 315.549 217.226 315.549C237.119 315.549 245.215 309.264 248.099 304C248.099 304 251 303 254.5 301C258 299 260.5 295 260.5 295Z" fill="#C1C4C8"/>
<path d="M257 287.5C254.695 287 247.14 295.549 248.944 297.049C249.652 297.637 249.958 300.606 248.099 304C248.099 304 251 303 254.5 301C258 299 260.5 295 260.5 295C259.887 290.5 257.681 287.648 257 287.5Z" fill="#ABB0B7"/>
<path d="M191.249 283.549L179.3 276.549C179.3 276.549 178.142 278.091 177.028 280.5C177.028 280.5 180.5 282.5 183.5 284C186.5 285.5 190.648 286.5 190.648 286.5C190.593 284.787 191.249 283.549 191.249 283.549Z" fill="#ABB0B7"/>
<path fill-rule="evenodd" clip-rule="evenodd" d="M190.648 286.5C190.772 290.336 194.463 296.549 217.082 296.549C243.34 296.549 249.365 285.599 249.529 280.5C249.529 280.5 253.5 278 255.5 276C257.5 274 260.057 270 260.057 270C263.769 282.638 263.21 309.957 215.582 308.549C169.904 307.199 173.207 288.759 177.028 280.5C177.028 280.5 180.5 282.5 183.5 284C186.5 285.5 190.648 286.5 190.648 286.5Z" fill="#C1C4C8"/>
<path d="M257.249 264.049C257.249 264.049 246.496 276.549 248.8 278.049C249.255 278.345 249.57 279.245 249.529 280.5C249.529 280.5 253.5 278 255.5 276C257.5 274 260.057 270 260.057 270C259.17 266.982 258.04 264.801 257.249 264.049Z" fill="#ABB0B7"/>
<path d="M191.249 262.549L179.944 255.549C179.944 255.549 179.021 256.884 178.069 259C178.069 259 180.5 261.5 184 263.5C187.5 265.5 190.765 266 190.765 266C190.403 264.055 191.249 262.549 191.249 262.549Z" fill="#ABB0B7"/>
<path fill-rule="evenodd" clip-rule="evenodd" d="M190.765 266C191.425 269.545 196.099 274.549 217.226 274.549C242.192 274.549 248.285 264.941 249.191 259.5C249.191 259.5 252.5 258.549 255 256.049C257.5 253.549 260.197 249.5 260.197 249.5C262.119 261.657 260.04 286.549 215.726 286.549C170.383 286.549 174.435 267.08 178.069 259C178.069 259 180.5 261.5 184 263.5C187.5 265.5 190.765 266 190.765 266Z" fill="#C1C4C8"/>
<path d="M258.444 243.049C257.14 241.049 247.64 254.049 248.944 256.049C249.254 256.523 249.472 257.81 249.191 259.5C249.191 259.5 252.5 258.549 255 256.049C257.5 253.549 260.197 249.5 260.197 249.5C259.638 245.96 258.739 243.5 258.444 243.049Z" fill="#ABB0B7"/>
<path d="M190.749 241.549L179.554 235.049C179.554 235.049 178.558 236.599 177.653 239C177.653 239 181 241.5 183.5 242.5C186 243.5 190.319 244.5 190.319 244.5C190.097 242.803 190.749 241.549 190.749 241.549Z" fill="#ABB0B7"/>
<path fill-rule="evenodd" clip-rule="evenodd" d="M260.94 232C260.94 232 258.5 235 255.5 237C252.5 239 249.182 240.5 249.182 240.5C247.318 246.034 239.649 253.549 217.226 253.549C195.085 253.549 190.785 248.053 190.319 244.5C190.319 244.5 186 243.5 183.5 242.5C181 241.5 177.653 239 177.653 239C174.544 247.25 172.519 265.549 215.726 265.549C256.36 265.549 261.847 244.059 260.94 232Z" fill="#C1C4C8"/>
<path d="M258.749 224.049C256.444 223.049 246.64 232.549 248.944 235.049C249.67 235.836 250.037 237.959 249.182 240.5C249.182 240.5 252.5 239 255.5 237C258.5 235 260.94 232 260.94 232C260.602 227.505 259.375 224.321 258.749 224.049Z" fill="#ABB0B7"/>
<path d="M258.249 202.049C255.445 200.549 246.14 213.549 248.944 215.049C249.956 215.59 250.368 218.149 248.944 221.2C248.944 221.2 252 220.5 255.5 217C259 213.5 261.101 210.168 261.101 210.168C260.384 205.646 258.968 202.433 258.249 202.049Z" fill="#ABB0B7"/>
<path fill-rule="evenodd" clip-rule="evenodd" d="M190.617 226.349C190.617 226.349 187 226 183 224C179 222 176.828 219.736 176.828 219.736C173.328 227.819 172.184 243.695 215.726 245.549C259.387 247.408 263.18 223.281 261.101 210.168C261.101 210.168 259 213.5 255.5 217C252 220.5 248.944 221.2 248.944 221.2C246.422 226.603 238.139 233.549 217.226 233.549C197.448 233.549 191.906 229.529 190.617 226.349Z" fill="#C1C4C8"/>
<path d="M190.749 222.549L179.554 215.049C179.554 215.049 178.048 216.919 176.828 219.736C176.828 219.736 179 222 183 224C187 226 190.617 226.349 190.617 226.349C189.773 224.269 190.749 222.549 190.749 222.549Z" fill="#ABB0B7"/>
<path d="M257.249 183.549C254.92 182.549 247.591 194.549 249.42 195.549C249.986 195.858 250.297 197.745 249.49 200.204C249.49 200.204 251.5 199 255 196.5C258.5 194 260 191.496 260 191.496C259.306 186.99 257.869 183.815 257.249 183.549Z" fill="#ABB0B7"/>
<path fill-rule="evenodd" clip-rule="evenodd" d="M191.041 206.337C191.041 206.337 186 205.5 183.5 204.5C181 203.5 177.539 200.5 177.539 200.5C174.381 209.042 173.716 225.678 216.202 226.049C258.18 226.416 261.91 203.907 260 191.496C260 191.496 258.5 194 255 196.5C251.5 199 249.49 200.204 249.49 200.204C247.688 205.698 240.304 214.049 217.702 214.049C197.554 214.049 192.189 209.688 191.041 206.337Z" fill="#C1C4C8"/>
<path d="M191.249 202.549L180.03 195.549C180.03 195.549 178.635 197.538 177.539 200.5C177.539 200.5 181 203.5 183.5 204.5C186 205.5 191.041 206.337 191.041 206.337C190.324 204.246 191.249 202.549 191.249 202.549Z" fill="#ABB0B7"/>
<path d="M256.749 164.049C252.14 162.549 245.104 173.049 248.177 175.049C249.234 175.737 249.682 178.142 248.482 181C248.482 181 251.5 180.5 255 178C258.5 175.5 260.132 172 260.132 172C259.553 167.599 257.98 164.45 256.749 164.049Z" fill="#ABB0B7"/>
<path fill-rule="evenodd" clip-rule="evenodd" d="M189.058 185.5C189.058 185.5 186 185 182 183.5C178 182 177 180 177 180C174.319 188.772 174.209 205.549 214.959 205.549C255.836 205.549 261.719 184.069 260.132 172C260.132 172 258.5 175.5 255 178C251.5 180.5 248.482 181 248.482 181C246.195 186.45 237.92 193.549 216.459 193.549C194.867 193.549 189.923 188.758 189.058 185.5Z" fill="#C1C4C8"/>
<path d="M190 182L179.413 174.549C179.413 174.549 177.989 176.764 177 180C177 180 178 182 182 183.5C186 185 189.058 185.5 189.058 185.5C188.612 183.821 190 182 190 182Z" fill="#ABB0B7"/>
<path d="M256.749 143.049C253.944 142.549 245.677 153.549 248.249 154.549C248.936 154.816 249.323 156.368 248.895 158.5C248.895 158.5 251.5 158 255 155C258.5 152 259.333 149 259.333 149C258.564 145.483 257.385 143.162 256.749 143.049Z" fill="#ABB0B7"/>
<path fill-rule="evenodd" clip-rule="evenodd" d="M190.14 164.5C190.14 164.5 188 164.5 183.5 162C179 159.5 177.935 158 177.935 158C176.5 165 170.5 185.5 214.959 186.549C259.417 187.597 261.957 161.003 259.333 149C259.333 149 258.5 152 255 155C251.5 158 248.895 158.5 248.895 158.5C247.724 164.346 240.434 174.549 216.459 174.549C194.558 174.549 190.457 168.5 190.14 164.5Z" fill="#C1C4C8"/>
<path d="M190.749 161.049L179.944 154.549C179.944 154.549 178.973 155.88 177.935 158C177.935 158 179 159.5 183.5 162C188 164.5 190.14 164.5 190.14 164.5C189.983 162.524 190.749 161.049 190.749 161.049Z" fill="#ABB0B7"/>
<path fill-rule="evenodd" clip-rule="evenodd" d="M214.959 164.549C270.741 164.549 258.677 121.549 258.677 121.549C258.677 121.549 248.354 132.598 248.177 134.049C248 135.5 249.177 152.549 216.459 152.549C194.799 152.549 190.988 146.851 190.886 143C190.886 143 188.5 143 184.5 141C180.5 139 178.792 137.5 178.792 137.5C175.089 145.854 171.64 164.549 214.959 164.549Z" fill="#C1C4C8"/>
<path d="M191.749 139.549L180.944 133.549C180.944 133.549 179.858 135.096 178.792 137.5C178.792 137.5 180.5 139 184.5 141C188.5 143 190.886 143 190.886 143C190.834 141.034 191.749 139.549 191.749 139.549Z" fill="#ABB0B7"/>
<path fill-rule="evenodd" clip-rule="evenodd" d="M236.444 137.549C236.444 137.549 194 153.5 176.944 130.049L186.944 122.549C204.444 138.049 233.944 125.049 233.944 125.049C233.944 125.049 235.944 128 236.444 131.5C236.944 135 236.444 137.549 236.444 137.549Z" fill="#C1C4C8"/>
</svg>
