<svg width="436" height="436" viewBox="0 0 436 436" fill="none" xmlns="http://www.w3.org/2000/svg">
<path d="M208.5 399.5L188.5 389V354.5L201 361.5V368.5L208.5 399.5Z" fill="#222325"/>
<path d="M74 294.5V273.5L62 266V314L57 317L82.5 332.5L74 294.5Z" fill="#222325"/>
<path d="M338.5 281.221V219.5L204.5 297L240.5 317L269 301.5L287 313V328L277.5 333V361.5L284 333.5L297.5 324.5L299.5 290L327 274L341 284L343 294.5L335.5 299L344.5 309.22V285.5L338.5 281.221Z" fill="#222325"/>
<path d="M389 297.164V270.5L364 284L352 277L350.5 319L389 297.164Z" fill="#434449"/>
<path d="M277.5 361.11V333.5L240 354.5V383L277.5 361.11Z" fill="#434449"/>
<path d="M338.5 219.5L373 240L345 256.5V296L338.5 290V219.5Z" fill="#2E2F31"/>
<path d="M170 286V248.5L118 218.5V328L151 348L150 338.5V302.5L164 294L170 286Z" fill="#2E2F31"/>
<path d="M53 229.5L87.5 249.5L74.5 259.5V274L53 261V229.5Z" fill="#2E2F31"/>
<path d="M212 365V374.5L201 368.5V360.5L212 365Z" fill="#2E2F31"/>
<path d="M39 275V254L26 262V266L39 275Z" fill="#2E2F31"/>
<path d="M344.5 334.5L348.5 337L344.5 339.5V334.5Z" fill="#2E2F31"/>
<path d="M277.5 373.5L281.5 375.5L277.5 378V373.5Z" fill="#2E2F31"/>
<path d="M179.5 334.5V303L166 312V348L178.5 395L188.5 389V339L179.5 334.5Z" fill="#4D4E52"/>
<path d="M99.5 335.5L104.5 332.5L118 328V254L105.5 258.5L104.5 259.5L91 268.5V305L99.5 335.5Z" fill="#4D4E52"/>
<path d="M53 260.849V229.5L26.5 245.5V262.5L39 254V275L51.5 321L62 314V266.5L53 260.849Z" fill="#4D4E52"/>
<path d="M224 421L235 416V357.5L212 365.5V374.5L224 421Z" fill="#4D4E52"/>
<path fill-rule="evenodd" clip-rule="evenodd" d="M350.5 319L389 297L387.085 327.181L387 329L238 416L240 383L277.5 361V378L281.5 375.5L285 357L299.5 349L305.5 336.5L302 332L303 302.5L316.5 309.5L329 303V331.5L344.5 321.5V339.5L348.5 337L350.5 319Z" fill="#4D4E52"/>
<path d="M387.085 327.181L389 297V270L410 258.5L397.5 320L387.085 327.181Z" fill="#46474B"/>
<path d="M299 290L316.5 300.5V310.5L303 302.5L302 332L296.5 325.5L299 290Z" fill="#323335"/>
<path d="M329 313.5V331.5L334.5 320L329 313.5Z" fill="#323335"/>
<path d="M284 333.5L292 345L285 357L281.5 375.5L277.5 373.5V361L284 333.5Z" fill="#323335"/>
<path d="M362 266L364 269V284L352 277L350.5 319L348.5 337L344.5 334.5V256.5L362 266Z" fill="#323335"/>
<path d="M179.5 303L215.5 323.5L188.5 339L179.5 334.5V303Z" fill="#323335"/>
<path d="M166 312L149.5 302V338.5L151 348L157 369.5L99.5 335.5L91 305V268.5L74 259V294.5L84 341L178.5 395L166 348V312Z" fill="#323335"/>
<path d="M170 248.5L171.5 229.5L122 201L118 218.5L170 248.5Z" fill="#323335"/>
<path d="M240 383L238 416H235V357.5L240 354.5V383Z" fill="#323335"/>
<path d="M362 213.5V198L349.5 206L362 213.5Z" fill="#323335"/>
<path d="M87 227.691V198.5L62.5 213L87 227.691Z" fill="#323335"/>
<path d="M201 368.5L212 374.5L224 421L212 414.5L201 368.5Z" fill="#323335"/>
<path d="M51.5 321L39 275L26 266L38 314L51.5 321Z" fill="#323335"/>
<path d="M336 299L347.5 312.5L334.5 320L329 313.5V303L336 299Z" fill="#616268"/>
<path d="M296.5 325L305.5 336.5L292 345L284 333.5L296.5 325Z" fill="#616268"/>
<path d="M430.5 245V225.5L409.5 241.5L364 269V284C364 284 430.5 249 430.5 245Z" fill="#595A62"/>
<path d="M287.5 328V312.5L224.608 348.5C224.608 348.5 219 350.5 215.5 350.5C212 350.5 206 348.906 206 348.906L188.5 339L188 354.5L203.209 362.822C203.209 362.822 210 366 214.5 366C219 366 225.5 362.822 225.5 362.822L287.5 328Z" fill="#595A62"/>
<path d="M344 294.5V284L316.5 300.5V310.5L344 294.5Z" fill="#595A62"/>
<path d="M26.5 262.5V245.5L5 228.5V249C5 251.5 26.5 262.5 26.5 262.5Z" fill="#595A62"/>
<path d="M347.5 312.5L344.5 321.5L329 331.5L334.5 320L347.5 312.5Z" fill="#595A62"/>
<path d="M299.5 349L305.5 336.5L292 345L285 357L299.5 349Z" fill="#595A62"/>
<path d="M179 245.5V282L173 285H170V248.5H173L179 245.5Z" fill="#4D4E55"/>
<path d="M338.5 219.5L323.5 211L191 289L205 297L338.5 219.5Z" fill="#4E4F52"/>
<path d="M175.5 227.5L179 245.5L173 248.5H170L171.5 229.5L175.5 227.5Z" fill="#4E4F52"/>
<path d="M151 348L157 369.5L99.5 335.5L104.5 332.5L118 328L151 348Z" fill="#4E4F52"/>
<path fill-rule="evenodd" clip-rule="evenodd" d="M225 348.489C225 348.489 220.5 350.5 214.5 350.5C208.5 350.5 206 349 206 349L188.5 339L215.5 323.5L242 339L225 348.489ZM312.184 297.91L299 290L327 273.5L340.203 281.655L344 284L316.5 300.5L312.184 297.91ZM409 242L382.5 226L408.843 210.5L428.234 220.83C428.234 220.83 430.5 222 430.5 225.5C430.5 229 428.234 230.586 428.234 230.586L409 242ZM26.2455 213.71L53 229.5L26.5 245.5L7 233.619C7 233.619 5 232.5 5 229C5 225.5 7 224.51 7 224.51L26.2455 213.71ZM179.5 303L163 293.5L149.5 302L166 312L179.5 303ZM104.5 259.5L91 268.5L74 259L87.5 249.5L104.5 259.5ZM362 198L349.5 206.5L332 195.5L344.5 187.5L362 198Z" fill="#4E4F52"/>
<path d="M269 301L285.5 310.5L241.5 336L163.5 292L170 285H173L179 282L240.5 317L269 301Z" fill="#55575B"/>
<path d="M312.5 204.5L373 240L344.5 256.5L362 266L406.5 239.5L330.5 194.5L318.5 199L318 201L312.5 204.5Z" fill="#55575B"/>
<path d="M171.5 229.5L175.5 227.5L126 198.5L122 201L171.5 229.5Z" fill="#55575B"/>
<path fill-rule="evenodd" clip-rule="evenodd" d="M118 246V254L105.5 258.5L27 212.5L73 186L90.5 196.5L86.8352 198.66L62.5 213L118 246ZM170.676 151.052L166.5 153.5L166.476 153.486L170.676 151.052Z" fill="#55575B"/>
<path d="M285.5 310.5L287.5 312.5L242 339L163 293.5L163.5 292L241.5 336L285.5 310.5Z" fill="#595C67"/>
<path d="M364 269L362 266L406.5 239.5L409 242L364 269Z" fill="#595C67"/>
<path d="M105.5 258.5L104.5 259.5L26 214L27 212.5L105.5 258.5Z" fill="#595C67"/>
</svg>
